<svg xmlns="http://www.w3.org/2000/svg" width="68.519" height="68.518" viewBox="0 0 68.519 68.518"><g id="Grupo_15724" data-name="Grupo 15724" transform="translate(-2 -2)"><path id="Caminho_5774" data-name="Caminho 5774" d="M20.15,24.441a17.223,17.223,0,0,0,2.32,21.343,17.129,17.129,0,1,0,0-24.222q-.351.351-.678.718l1.7,1.521c.191-.214.387-.421.59-.626a14.826,14.826,0,1,1-2.013,2.5Z" transform="translate(2.197 2.066)"></path><path id="Caminho_5775" data-name="Caminho 5775" d="M25,40.271v1.142a1.142,1.142,0,0,0,1.142,1.142H42.13a1.142,1.142,0,0,0,1.142-1.142V40.271a9.141,9.141,0,0,0-5.362-8.31,5.71,5.71,0,1,0-7.548,0A9.141,9.141,0,0,0,25,40.271ZM30.71,27.71a3.426,3.426,0,1,1,3.426,3.426A3.43,3.43,0,0,1,30.71,27.71Zm3.426,5.71a6.859,6.859,0,0,1,6.852,6.852h-13.7A6.859,6.859,0,0,1,34.136,33.42Z" transform="translate(3.265 2.839)"></path><path id="Caminho_5776" data-name="Caminho 5776" d="M69.376,2H30.549a1.142,1.142,0,0,0-1.142,1.142V15.329c-.544.2-1.083.412-1.615.654l.946,2.078a19.507,19.507,0,0,1,21.769,3.949,19.391,19.391,0,1,1-23.925-2.8l-1.2-1.942A21.776,21.776,0,0,0,21.437,20.4a21.66,21.66,0,0,0-3.488,26.1l-3.78,3.78a3.509,3.509,0,0,0-4.845,0,3.427,3.427,0,0,0,0,4.844h0L3.672,60.77a5.71,5.71,0,0,0,8.076,8.075L17.4,63.193h0a3.426,3.426,0,0,0,4.845-4.845h0l3.787-3.786a21.491,21.491,0,0,0,3.376,1.556V69.376a1.142,1.142,0,0,0,1.142,1.142H69.377a1.142,1.142,0,0,0,1.142-1.142V3.142A1.143,1.143,0,0,0,69.376,2ZM10.133,67.23a3.426,3.426,0,0,1-4.847-4.844l5.653-5.653,4.845,4.845Zm10.5-5.652a1.142,1.142,0,0,1-1.616,0L10.939,53.5a1.142,1.142,0,0,1,1.615-1.615l8.075,8.074A1.143,1.143,0,0,1,20.63,61.579Zm0-4.845-4.845-4.844,3.437-3.437a20.062,20.062,0,0,0,4.849,4.842Zm47.6,11.5H31.691V56.8a21.557,21.557,0,0,0,20.431-5.719,21.7,21.7,0,0,0,0-30.686,21.813,21.813,0,0,0-20.431-5.734V4.284H68.234Z" transform="translate(0 0)"></path><rect id="Ret&#xE2;ngulo_392" data-name="Ret&#xE2;ngulo 392" width="26.265" height="2.284" transform="translate(38.543 7.71)"></rect><rect id="Ret&#xE2;ngulo_393" data-name="Ret&#xE2;ngulo 393" width="10.278" height="2.284" transform="translate(54.53 13.42)"></rect></g></svg>