<svg xmlns="http://www.w3.org/2000/svg" width="68.516" height="68.518" viewBox="0 0 68.516 68.518"><path id="Caminho_5778" data-name="Caminho 5778" d="M114.521,66.259a6.6,6.6,0,0,0,6.328-4.659l.274-.877h7.6a9.007,9.007,0,0,0,9.01-8.983V50.506l1.234-.016c5.409-.074,9.81-4.83,9.81-10.6V32c0-5.783-4.411-10.528-9.833-10.577l-1.2-.011-.038-1.2a23.2,23.2,0,0,0-46.375,0l-.038,1.2-1.2.011c-5.421.049-9.832,4.794-9.832,10.577v7.885c0,5.847,4.456,10.6,9.933,10.6h2.238a1.222,1.222,0,0,0,1.1-1.126V20.956a20.989,20.989,0,1,1,41.979,0V51.739a6.7,6.7,0,0,1-6.786,6.758h-7.6l-.276-.874a6.635,6.635,0,1,0-6.329,8.636Zm23.214-42.614,1.281.032c4.226.1,7.538,3.758,7.538,8.323v7.885c0,4.565-3.312,8.221-7.538,8.323l-1.281.031ZM91.308,48.239l-1.281-.031c-4.227-.1-7.539-3.758-7.539-8.323V32c0-4.565,3.312-8.221,7.539-8.323l1.281-.032Zm23.213,6.976a4.409,4.409,0,1,1-4.409,4.409A4.414,4.414,0,0,1,114.521,55.215Z" transform="translate(-80.264 2.259)" fill="red"></path></svg>